<svg width="1564" height="1564" xmlns="http://www.w3.org/2000/svg" xmlns:xlink="http://www.w3.org/1999/xlink" xml:space="preserve" overflow="hidden"><defs><clipPath id="clip0"><rect x="1417" y="456" width="1564" height="1564"/></clipPath></defs><g clip-path="url(#clip0)" transform="translate(-1417 -456)"><path d="M2199 2017.5C1768.49 2017.5 1419.5 1668.51 1419.5 1238 1419.5 807.494 1768.49 458.5 2199 458.5 2629.51 458.5 2978.5 807.494 2978.5 1238 2978.5 1668.51 2629.51 2017.5 2199 2017.5Z" stroke="#2F528F" stroke-width="4.58333" stroke-miterlimit="8" fill="#3C37FF" fill-rule="evenodd"/><path d="M2657.97 776.938C2912.33 1029.87 2913.49 1441.1 2660.56 1695.47 2407.64 1949.83 1996.4 1950.99 1742.03 1698.06 1488.3 1445.76 1486.43 1035.75 1737.85 781.139L1815.07 857.397C1605.15 1069.99 1607.31 1412.5 1819.9 1622.43 2032.49 1832.35 2375 1830.19 2584.93 1617.6 2794.34 1405.54 2792.78 1064.04 2581.44 853.898Z" fill="#FFFFFF" fill-rule="evenodd"/><path d="M2199 697C2168.62 697 2144 672.376 2144 642 2144 611.624 2168.62 587 2199 587 2229.38 587 2254 611.624 2254 642 2254 672.376 2229.38 697 2199 697Z" fill="#FFFFFF" fill-rule="evenodd"/><path d="M2198.5 1338C2143 1338 2098 1293 2098 1237.5 2098 1182 2143 1137 2198.5 1137 2254 1137 2299 1182 2299 1237.5 2299 1293 2254 1338 2198.5 1338Z" fill="#FFFFFF" fill-rule="evenodd"/><path d="M1936 759C1905.62 759 1881 734.376 1881 704 1881 673.624 1905.62 649 1936 649 1966.38 649 1991 673.624 1991 704 1991 734.376 1966.38 759 1936 759Z" fill="#FFFFFF" fill-rule="evenodd"/><path d="M2462 760C2431.62 760 2407 735.376 2407 705 2407 674.624 2431.62 650 2462 650 2492.38 650 2517 674.624 2517 705 2517 735.376 2492.38 760 2462 760Z" fill="#FFFFFF" fill-rule="evenodd"/><path d="M1906.75 1532.42C1743.87 1370.46 1743.12 1107.12 1905.08 944.245 2067.04 781.367 2330.38 780.623 2493.25 942.582 2655.38 1103.79 2656.98 1365.64 2496.83 1528.82L2424.16 1457.5C2545.66 1333.7 2543.8 1134.85 2420 1013.34 2296.2 891.84 2097.35 893.701 1975.84 1017.5 1854.9 1140.73 1856.11 1338.47 1978.54 1460.21Z" fill="#FFFFFF" fill-rule="evenodd"/><path d="M2198.5 1636C2167.85 1636 2143 1611.82 2143 1582 2143 1552.18 2167.85 1528 2198.5 1528 2229.15 1528 2254 1552.18 2254 1582 2254 1611.82 2229.15 1636 2198.5 1636Z" fill="#FFFFFF" fill-rule="evenodd"/></g></svg>